# xmcd
#
# Track frame offsets:
#	150
#	11541
#	21099
#	34460
#	43594
#	55549
#	78647
#	89720
#	106128
#	115382
#	131229
#	142467
#	155352
#	163170
#
# Disc length: 2341 seconds
# Revision: 1
# Processed by: cddbd v1.5.2PL0 Copyright (c) Steve Scherf et al.
# Submitted via: dBpowerAMP V12.0
#
DISCID=c409230e
DTITLE=James Hand - Mighty Lonesome Man
DYEAR=2012
DGENRE=Country
TTITLE0=Mighty Lonesome Man
TTITLE1=Years I Been Loving You
TTITLE2=Lesson in Depression
TTITLE3=Please Me When You Can
TTITLE4=The Drought
TTITLE5=Old Man Henry
TTITLE6=Now Not Later
TTITLE7=My Witness
TTITLE8=Wish You Would Kiss Me
TTITLE9=You Almost Fell
TTITLE10=Favorite Fool
TTITLE11=You Were with Me Then
TTITLE12=Get Rhythm
TTITLE13=You're an Angel
EXTD=
EXTT0=
EXTT1=
EXTT2=
EXTT3=
EXTT4=
EXTT5=
EXTT6=
EXTT7=
EXTT8=
EXTT9=
EXTT10=
EXTT11=
EXTT12=
EXTT13=
PLAYORDER=
